# xmcd
# 
# Track frame offsets:
#     150
#     14747
#     32765
#     49762
#     56745
# 
# Disc length: 950
# 
# Revision: 0
# Processed by: cddbd v1.5.2PL0 Copyright (c) Steve Scherf et al.
# Submitted via: fre:ac v1.0.17
# 
DISCID=4003b405
DTITLE=シド - Ｖ．Ｉ．Ｐ
DYEAR=2012
DGENRE=JPop
TTITLE0=Ｖ．Ｉ．Ｐ（ＭＢＳ・ＴＢＳ系全国ネットアニメ「マギ」オープニングテーマ）
TTITLE1=走馬灯
TTITLE2=Ｓｙｍｐａｔｈｙ
TTITLE3=Ｖ．Ｉ．Ｐ（アニメＶｅｒ．）
TTITLE4=Ｖ．Ｉ．Ｐ（Ｉｎｓｔｒｕｍｅｎｔａｌ）
EXTD=
EXTT0=
EXTT1=
EXTT2=
EXTT3=
EXTT4=
PLAYORDER=
